<?xml version="1.0" encoding="UTF-8"?>
<svg id="Layer_2" data-name="Layer 2" xmlns="http://www.w3.org/2000/svg" xmlns:xlink="http://www.w3.org/1999/xlink" viewBox="0 0 233 132.46">
  <defs>
    <style>
      .cls-1 {
        fill: url(#New_Gradient_Swatch_1-3);
      }

      .cls-1, .cls-2, .cls-3, .cls-4, .cls-5, .cls-6 {
        stroke-width: 0px;
      }

      .cls-2 {
        fill: url(#New_Gradient_Swatch_1-6);
      }

      .cls-3 {
        fill: url(#New_Gradient_Swatch_1);
      }

      .cls-4 {
        fill: url(#New_Gradient_Swatch_1-2);
      }

      .cls-5 {
        fill: url(#New_Gradient_Swatch_1-4);
      }

      .cls-6 {
        fill: url(#New_Gradient_Swatch_1-5);
      }
    </style>
    <linearGradient id="New_Gradient_Swatch_1" data-name="New Gradient Swatch 1" x1="0" y1="82.13" x2="135.4" y2="82.13" gradientUnits="userSpaceOnUse">
      <stop offset="0" stop-color="#01a8d4"/>
      <stop offset=".5" stop-color="#203b74"/>
      <stop offset="1" stop-color="#251f4e"/>
    </linearGradient>
    <linearGradient id="New_Gradient_Swatch_1-2" data-name="New Gradient Swatch 1" x1="143.52" y1="77.48" x2="233" y2="77.48" xlink:href="#New_Gradient_Swatch_1"/>
    <linearGradient id="New_Gradient_Swatch_1-3" data-name="New Gradient Swatch 1" x1="189.99" y1="12.33" x2="215.56" y2="12.33" xlink:href="#New_Gradient_Swatch_1"/>
    <linearGradient id="New_Gradient_Swatch_1-4" data-name="New Gradient Swatch 1" x1="143.38" y1="43.41" x2="183.21" y2="43.41" xlink:href="#New_Gradient_Swatch_1"/>
    <linearGradient id="New_Gradient_Swatch_1-5" data-name="New Gradient Swatch 1" x1="99.25" y1="43.37" x2="140.58" y2="43.37" xlink:href="#New_Gradient_Swatch_1"/>
    <linearGradient id="New_Gradient_Swatch_1-6" data-name="New Gradient Swatch 1" x1="54.55" y1="43.41" x2="95.87" y2="43.41" xlink:href="#New_Gradient_Swatch_1"/>
  </defs>
  <g id="Layer_1-2" data-name="Layer 1">
    <g>
      <path class="cls-3" d="m107.13,132.46c-1.67-.71-2.43-1.92-2.35-3.77.09-2.02-.02-4.05.02-6.07.02-.91-.28-1.25-1.22-1.31-6.14-.37-12.27-.91-18.37-1.69-14.3-1.84-28.34-4.81-41.94-9.65-10.42-3.7-20.38-8.33-29.12-15.24-5.52-4.37-10.24-9.41-12.77-16.17-.62-1.67-.99-3.39-1.39-5.12v-6.08c.99-4.98,3.12-9.43,6.36-13.33,3.68-4.43,8.1-7.97,12.93-11.05,7.23-4.61,15.04-7.96,23.08-10.84,1.15-.41,2.31-.58,3.37.25,1.34,1.04,1.26,2.88-.25,3.65-1.5.76-3.09,1.34-4.64,2.01-6.18,2.68-12.08,5.84-17.3,10.14-3.71,3.05-6.96,6.53-8.93,10.99-3.26,7.37-1.92,14.18,2.74,20.47,4.38,5.92,10.28,10.05,16.67,13.53,13.15,7.17,27.38,11.12,42,13.86,7.13,1.34,14.31,2.31,21.55,2.83,1.85.13,3.69.33,5.54.46,1.58.11,1.66.02,1.67-1.53,0-1.9,0-3.8.02-5.7.03-2.87,2.31-4.35,4.83-3.01,4.99,2.65,9.93,5.4,14.89,8.11,2.92,1.6,5.87,3.16,8.75,4.82,2.82,1.62,2.84,4.44.02,6.02-6.56,3.65-13.15,7.25-19.73,10.86-1.55.85-3.11,1.69-4.67,2.54h-1.77Z"/>
      <path class="cls-4" d="m233,75.22c-.91,6.36-4.11,11.54-8.43,16.09-3.15,3.31-6.75,6.09-10.59,8.57-8.11,5.24-16.93,8.91-26.06,11.89-11.83,3.85-23.95,6.37-36.29,7.86-.92.11-1.85.23-2.77.23-2.59,0-4.85-1.98-5.26-4.56-.4-2.52,1.08-5.13,3.49-5.95,2.46-.83,5.07-.83,7.6-1.24,13.46-2.16,26.62-5.4,39.1-11,7.01-3.14,13.58-7.01,19.01-12.54,3.54-3.61,6.28-7.71,7.08-12.87.75-4.85-.32-9.32-2.87-13.44-3.98-6.43-9.84-10.79-16.23-14.56-2.37-1.4-4.85-2.56-7.29-3.81-1.76-.9-2.41-2.08-1.83-3.34.61-1.32,2.28-1.86,3.95-1.2,3.26,1.28,6.45,2.72,9.56,4.34,6.39,3.33,12.48,7.09,17.69,12.11,4.85,4.68,8.61,10.05,9.9,16.85.06.33.17.65.25.98v5.57Z"/>
      <path class="cls-1" d="m205.14,0c3.5.79,6.43,2.44,8.46,5.5,4.19,6.31,1.36,15.31-5.71,18.06-4.57,1.77-8.97,1.47-12.96-1.44-4.01-2.93-5.55-7.04-4.72-11.89.78-4.59,3.48-7.76,7.84-9.46.82-.32,1.69-.52,2.53-.77,1.52,0,3.04,0,4.56,0Zm-2.45,18.47c3.5.02,5.92-2.58,5.91-6.33-.01-3.47-2.6-6.23-5.84-6.24-3.2,0-5.91,3-5.9,6.53.01,3.45,2.51,6.03,5.83,6.04Z"/>
      <path class="cls-5" d="m183.19,44.11c-.1,3.61.26,8-.53,12.36-1.4,7.8-6.07,14.01-14.16,15.65-7.66,1.56-14.66.31-20.06-5.88-2.89-3.32-4.26-7.39-4.61-11.71-.59-7.36-.63-14.75,0-22.11.5-5.85,2.59-11.11,7.53-14.75,4.57-3.36,9.8-4.05,15.3-3.36,6.81.86,11.61,4.49,14.41,10.7,1.45,3.22,2.02,6.69,2.1,10.22.06,2.7.01,5.4.01,8.86Zm-13.33.93c0-4.55.07-7.64-.02-10.71-.08-2.58-.45-5.13-1.85-7.4-1.15-1.85-3.58-2.86-5.71-2.42-2.71.57-3.98,2.51-4.65,4.97-.55,2.04-.75,4.16-.77,6.26-.06,5.1-.07,10.21,0,15.31.03,2.44.29,4.89,1.1,7.22.89,2.56,2.69,3.94,5.11,4.01,2.69.07,4.52-1.12,5.62-3.68.52-1.21.79-2.48.95-3.79.46-3.74.15-7.5.22-9.77Z"/>
      <path class="cls-6" d="m113.33,37.17c5.08-4.13,10.66-4.69,16.56-2.87,3.91,1.2,6.56,4.05,8.19,7.64,3,6.63,3.55,13.49.27,20.17-3.72,7.59-11.26,11.19-19.57,10.55-3.95-.3-7.63-1.35-10.83-3.78-4.34-3.29-7.06-7.67-7.76-13.03-1.11-8.51-1.58-17.12.45-25.52,2.08-8.59,8.07-13.66,16.55-15.61,5.57-1.28,11.14-.79,16.55,1.22,1.12.41,1.4.91,1.1,2.05-.61,2.28-1.12,4.59-1.59,6.9-.22,1.1-.7,1.35-1.76,1.03-2.67-.83-5.41-1.3-8.21-1.29-4.61.02-8.27,2.86-9.42,7.32-.43,1.67-.76,3.36-.55,5.22Zm-.31,12.82c0,.45-.05,1.13,0,1.8.26,2.74.65,5.46,2.3,7.79,2.59,3.67,7.31,3.7,9.84,0,1.88-2.76,2.18-5.86,1.69-9.1-.77-5.01-3.51-7.4-8.41-6.53-4.75.84-5.85,1.45-5.42,6.03Z"/>
      <path class="cls-2" d="m86.5,42.6c3.06,1.43,5.58,3.14,7.28,5.86,3.82,6.11,2.23,14.85-3.53,19.41-3.16,2.5-6.79,3.89-10.73,4.48-5.63.85-11.11.4-16.28-2.2-4.55-2.29-7.68-5.69-8.47-10.93-.48-3.16-.41-3.31,2.74-3.32,3.04-.01,6.08,0,9.12,0,.64,0,1.16.06,1.28.87.44,3.1,2.46,4.72,5.33,5.34,2.05.44,4.15.33,6.01-.8,2.89-1.76,3.91-4.94,2.88-8.68-.78-2.82-3.22-4.61-6.46-4.72-2.15-.07-4.3-.16-6.44-.14-.87,0-1.2-.2-1.18-1.11.05-2.53.05-5.06,0-7.6-.02-.99.36-1.36,1.33-1.35,1.94.03,3.89.07,5.82-.02,2.57-.13,4.76-1.13,5.71-3.68,1.04-2.78,1.13-5.55-1.17-7.9-2.93-2.99-10.18-1.89-10.99,2.67-.16.88-.69.92-1.36.91-3.54,0-7.09-.02-10.63.03-1.04.01-1.34-.44-1.27-1.38.3-4,1.94-7.31,5.13-9.78,3.83-2.96,8.2-4.38,13.05-4.47,4.72-.09,9.25.54,13.47,2.79,5.14,2.74,7.66,7.17,7.83,12.84.15,5.33-2.5,9.22-6.98,11.96-.42.26-.84.53-1.45.91Z"/>
    </g>
  </g>
</svg>