<?xml version="1.0" encoding="UTF-8"?>
<svg id="Layer_2" data-name="Layer 2" xmlns="http://www.w3.org/2000/svg" xmlns:xlink="http://www.w3.org/1999/xlink" viewBox="0 0 1223.8 213.64">
  <defs>
    <style>
      .cls-1 {
        stroke: url(#linear-gradient-3);
      }

      .cls-1, .cls-2, .cls-3 {
        fill: none;
        stroke-miterlimit: 10;
        stroke-width: 5px;
      }

      .cls-4 {
        fill: url(#linear-gradient-6);
      }

      .cls-5 {
        fill: url(#linear-gradient-11);
      }

      .cls-6 {
        fill: url(#linear-gradient-10);
      }

      .cls-7 {
        fill: url(#linear-gradient-5);
      }

      .cls-2 {
        stroke: url(#linear-gradient-4);
      }

      .cls-3 {
        stroke: url(#linear-gradient-2);
      }

      .cls-8 {
        fill: url(#linear-gradient-7);
      }

      .cls-9 {
        fill: url(#linear-gradient-9);
      }

      .cls-10 {
        fill: url(#linear-gradient);
      }

      .cls-11 {
        fill: url(#linear-gradient-8);
      }

      .cls-12 {
        fill: url(#linear-gradient-12);
      }

      .cls-13 {
        fill: url(#linear-gradient-13);
      }
    </style>
    <linearGradient id="linear-gradient" x1="171.27" y1="174.33" x2="1223.8" y2="174.33" gradientUnits="userSpaceOnUse">
      <stop offset="0" stop-color="#fff"/>
      <stop offset=".5" stop-color="#fff"/>
      <stop offset="1" stop-color="#fff"/>
    </linearGradient>
    <linearGradient id="linear-gradient-2" x1="32.07" y1="120.41" x2="124.2" y2="120.41" xlink:href="#linear-gradient"/>
    <linearGradient id="linear-gradient-3" x1="0" y1="120.41" x2="156.27" y2="120.41" xlink:href="#linear-gradient"/>
    <linearGradient id="linear-gradient-4" x1="0" y1="120.41" x2="156.27" y2="120.41" xlink:href="#linear-gradient"/>
    <linearGradient id="linear-gradient-5" x1="48.71" y1="123.36" x2="109.19" y2="123.36" xlink:href="#linear-gradient"/>
    <linearGradient id="linear-gradient-6" x1="44.08" y1="108.71" x2="113.31" y2="108.71" xlink:href="#linear-gradient"/>
    <linearGradient id="linear-gradient-7" x1="90.54" y1="29.6" x2="152" y2="29.6" xlink:href="#linear-gradient"/>
    <linearGradient id="linear-gradient-8" x1="65.56" y1="18.11" x2="95.02" y2="18.11" gradientTransform="translate(-18.17 2.73) rotate(-.95) scale(1.12 1) skewX(-1.8)" xlink:href="#linear-gradient"/>
    <linearGradient id="linear-gradient-9" x1="26.94" y1="23.89" x2="56.65" y2="23.89" gradientTransform="translate(-18.17 2.73) rotate(-.95) scale(1.12 1) skewX(-1.8)" xlink:href="#linear-gradient"/>
    <linearGradient id="linear-gradient-10" x1="31.46" y1="14.7" x2="87.25" y2="14.7" gradientTransform="translate(-18.17 2.73) rotate(-.95) scale(1.12 1) skewX(-1.8)" xlink:href="#linear-gradient"/>
    <linearGradient id="linear-gradient-11" x1="36.76" y1="25.93" x2="36.93" y2="25.93" xlink:href="#linear-gradient"/>
    <linearGradient id="linear-gradient-12" x1="64.96" y1="5.45" x2="100.77" y2="5.45" gradientTransform="translate(-18.17 2.73) rotate(-.95) scale(1.12 1) skewX(-1.8)" xlink:href="#linear-gradient"/>
    <linearGradient id="linear-gradient-13" x1="18.13" y1="12.36" x2="54.34" y2="12.36" gradientTransform="translate(-18.17 2.73) rotate(-.95) scale(1.12 1) skewX(-1.8)" xlink:href="#linear-gradient"/>
  </defs>
  <g id="Layer_1-2" data-name="Layer 1">
    <g>
      <path class="cls-10" d="M171.45,156.74v-3.52c0-15.87,4.96-18.21,38.41-18.21,16.77,0,22.81,.72,26.6,3.16,4.06,2.52,5.59,6.4,5.59,13.79,0,8.48-2.25,11.45-9.74,12.98,9.2,2.07,10.91,4.33,10.91,14.34,0,8.75-2.16,12.53-8.48,14.88-4.69,1.8-14.07,2.43-34.08,2.43-15.33,0-21.64-1.17-25.43-4.6-3.16-2.98-3.97-6.4-3.97-17.76h17.4l.09,1.08c0,3.88,.27,4.87,1.44,5.95,1.26,.72,1.98,.9,6.04,.99l5.68,.09,5.05,.09q15.24-.36,16.68-1.35c1.35-.81,1.8-1.89,1.8-4.15,0-2.71-.72-3.97-2.61-4.51-1.44-.45-1.98-.45-12.98-.63h-10.55v-12.89h13.79c9.11,0,11.18-.9,11.18-5.05,0-4.6-1.26-4.96-16.77-4.96-13.52,0-16.05,.18-17.4,1.53q-.99,.99-1.26,6.31h-17.4Z"/>
      <path class="cls-10" d="M307.69,152.6c-.09-1.62-.36-2.25-.99-2.71-.9-.72-1.44-.81-6.58-.99-4.06-.18-7.66-.27-10.64-.27-8.57,0-13.34,.36-15.51,1.26-2.07,.9-2.71,3.07-2.71,9.02,0,.72,0,1.98,.09,3.34,4.6-4.42,8.57-5.32,24.34-5.32,23.62,0,28.67,3.43,28.67,19.66,0,10.64-2.07,15.33-7.93,17.85-3.97,1.62-11,2.16-30.21,2.16-17.31,0-23.53-1.08-27.59-4.78-2.71-2.52-3.97-5.95-4.42-12.44-.27-2.61-.36-7.75-.36-15.51,0-10.01,.18-13.07,1.08-17.04,2.16-9.56,9.11-11.81,36.25-11.81,20.47,0,27.32,1.08,30.75,4.87,2.16,2.25,2.8,5.05,2.89,12.71h-17.13Zm-33,18.66c-1.98,.81-3.07,2.71-3.07,5.5,0,3.43,.99,5.14,3.25,5.77,1.44,.36,5.32,.54,11.63,.54,5.32,0,13.8-.27,15.69-.45,3.16-.27,4.42-1.89,4.42-5.77,0-6.13-.9-6.4-19.66-6.4-8.39,0-10.55,.18-12.26,.81Z"/>
      <path class="cls-10" d="M395.69,136.1c7.12,.99,11.63,5.14,12.8,11.63,.63,3.52,.72,4.87,.72,18.03s-.09,14.61-.72,18.12c-1.17,6.49-5.68,10.64-12.8,11.63-4.42,.72-13.25,1.08-24.16,1.08s-19.84-.36-24.25-1.08c-7.12-.99-11.63-5.14-12.8-11.63-.72-3.61-.72-4.6-.72-18.94,0-12.17,.09-13.79,.72-17.22,1.17-6.49,5.68-10.64,12.8-11.63,4.51-.72,13.34-1.08,24.25-1.08s19.66,.36,24.16,1.08Zm-43.64,29.39c0,10.01,.72,12.8,3.79,14.25,2.16,.99,2.7,.99,14.43,1.26q11.27-.18,12.98-.36c6.58-.72,7.66-2.89,7.66-14.88,0-9.56-.81-12.53-3.79-13.89-1.98-.9-7.03-1.26-16.77-1.26-17.49,0-18.3,.63-18.3,14.88Z"/>
      <path class="cls-10" d="M474.86,195.87h-15.06v-5.59h-.81c-3.07,5.14-7.3,6.67-18.84,6.67s-17.04-1.17-20.74-4.51c-3.52-3.25-4.6-7.57-4.6-18.21s1.71-15.96,6.22-18.93c3.88-2.53,8.29-3.25,19.29-3.25s14.88,1.44,17.94,6.85h.63v-23.17h15.96v60.14Zm-44.09-21.82c0,9.47,1.8,10.91,13.79,10.91,5.68,0,9.92-.63,11.81-1.89,1.89-1.17,2.61-3.43,2.61-8.47,0-8.93-2.07-10.55-13.43-10.55-12.62,0-14.79,1.44-14.79,10.01Z"/>
      <path class="cls-10" d="M497.14,153.23v6.4h.81c2.98-5.41,7.48-7.48,16.41-7.48,12.89,0,17.22,4.33,17.22,17.13v2.88h-15.06c0-6.31-1.8-8.02-8.39-8.02-3.61,0-6.58,1.08-8.11,3.06-1.53,2.07-1.98,4.42-1.98,11v17.67h-15.96v-42.65h15.06Z"/>
      <path class="cls-10" d="M590.28,156.02c4.24,3.16,5.5,7.03,5.5,17.76,0,11.72-1.08,15.78-4.96,18.94-4.06,3.34-9.38,4.24-25.16,4.24s-21.28-.9-25.34-4.24c-3.97-3.25-4.96-7.21-4.96-19.57,0-10.01,1.26-14.07,5.5-17.13,3.97-2.88,10.19-3.88,24.71-3.88s20.74,.99,24.71,3.88Zm-38.95,18.84c0,5.59,.72,7.48,3.34,8.66,2.07,.99,5.68,1.44,11,1.44,12.08,0,14.16-1.53,14.16-10.55,0-5.59-.9-7.75-3.61-8.93-1.98-.9-5.86-1.35-10.55-1.35-12.17,0-14.34,1.62-14.34,10.73Z"/>
      <path class="cls-10" d="M616.79,153.23v6.49h.81c2.88-5.5,7.75-7.57,18.12-7.57s15.42,1.44,19.21,5.32c3.88,4.06,4.69,7.3,4.69,19.02v19.39h-15.96v-19.39c0-6.85-.27-8.38-1.98-10.01-1.71-1.71-4.78-2.34-10.73-2.34s-9.02,.81-10.91,2.79c-1.98,2.07-2.34,4.06-2.34,11.9v17.04h-15.96v-42.65h15.06Z"/>
      <path class="cls-10" d="M722.73,182.26c-1.17,11.81-7.03,14.7-29.84,14.7-12.35,0-18.21-1.08-22.09-3.97-4.15-3.16-5.41-7.39-5.41-18.3,0-11.45,1.26-15.69,5.77-18.84,4.15-2.89,9.56-3.79,23.35-3.79s19.02,.81,22.9,3.7c4.15,3.07,5.68,7.93,5.68,17.94,0,.54,0,2.53-.09,4.33h-41.66c0,4.33,.45,5.77,1.98,6.94,1.71,1.26,5.05,1.8,10.82,1.8,10.19,0,12.08-.72,12.71-4.51h15.87Zm-15.69-12.98c-.09-3.34-.27-4.15-1.26-5.14-1.44-1.53-4.69-2.16-11-2.16-10.73,0-13.25,1.35-13.43,7.3h25.7Z"/>
      <path class="cls-10" d="M729.05,153.23h15.06v5.77h.81c2.79-5.23,7.3-6.85,19.57-6.85,11,0,16.68,1.26,20.29,4.69,3.43,3.07,4.42,7.21,4.42,17.94,0,18.57-4.15,22.18-25.43,22.18-10.82,0-14.88-1.44-18.03-6.58h-.72v23.26h-15.96v-60.41Zm15.96,21.82c0,8.3,2.34,9.92,14.16,9.92,5.95,0,9.74-.54,11.45-1.8,1.98-1.26,2.62-3.52,2.62-9.29,0-8.21-2.16-9.74-13.52-9.74-12.8,0-14.7,1.35-14.7,10.91Z"/>
      <path class="cls-10" d="M810.29,153.23v6.4h.81c2.98-5.41,7.48-7.48,16.41-7.48,12.89,0,17.22,4.33,17.22,17.13v2.88h-15.06c0-6.31-1.8-8.02-8.38-8.02-3.61,0-6.58,1.08-8.12,3.06-1.53,2.07-1.98,4.42-1.98,11v17.67h-15.96v-42.65h15.06Z"/>
      <path class="cls-10" d="M903.43,156.02c4.24,3.16,5.5,7.03,5.5,17.76,0,11.72-1.08,15.78-4.96,18.94-4.06,3.34-9.38,4.24-25.16,4.24s-21.28-.9-25.34-4.24c-3.97-3.25-4.96-7.21-4.96-19.57,0-10.01,1.26-14.07,5.5-17.13,3.97-2.88,10.19-3.88,24.71-3.88s20.74,.99,24.71,3.88Zm-38.95,18.84c0,5.59,.72,7.48,3.34,8.66,2.07,.99,5.68,1.44,11,1.44,12.08,0,14.16-1.53,14.16-10.55,0-5.59-.9-7.75-3.61-8.93-1.98-.9-5.86-1.35-10.55-1.35-12.17,0-14.34,1.62-14.34,10.73Z"/>
      <path class="cls-10" d="M934.99,179.92v15.96h-19.21v-15.96h19.21Z"/>
      <path class="cls-10" d="M1000.9,178.74c-.27,7.12-1.17,10.19-3.97,12.98-4.06,4.15-9.29,5.23-26.06,5.23-13.07,0-18.57-.9-22.81-3.97-4.15-2.88-5.5-7.48-5.5-18.75,0-10.28,1.26-14.79,5.05-17.85,4.06-3.34,9.65-4.33,24.07-4.33s20.38,1.08,24.43,4.42c3.43,2.71,4.6,6.04,4.87,14.07h-16.23c-.54-4.87-3.7-6.49-13.07-6.49-11.09,0-13.16,1.71-13.16,10.64,0,5.41,.9,7.66,3.61,8.84,1.89,.9,5.41,1.35,9.74,1.35,9.38,0,12.08-1.26,12.8-6.13h16.23Z"/>
      <path class="cls-10" d="M1060.51,156.02c4.24,3.16,5.5,7.03,5.5,17.76,0,11.72-1.08,15.78-4.96,18.94-4.06,3.34-9.38,4.24-25.16,4.24s-21.28-.9-25.34-4.24c-3.97-3.25-4.96-7.21-4.96-19.57,0-10.01,1.26-14.07,5.5-17.13,3.97-2.88,10.19-3.88,24.71-3.88s20.74,.99,24.71,3.88Zm-38.95,18.84c0,5.59,.72,7.48,3.34,8.66,2.07,.99,5.68,1.44,11,1.44,12.08,0,14.16-1.53,14.16-10.55,0-5.59-.9-7.75-3.61-8.93-1.98-.9-5.86-1.35-10.55-1.35-12.17,0-14.34,1.62-14.34,10.73Z"/>
      <path class="cls-10" d="M1092.07,179.92v15.96h-19.21v-15.96h19.21Z"/>
      <path class="cls-10" d="M1143.28,195.87v-6.4h-.81c-2.43,5.41-7.48,7.48-18.21,7.48-9.92,0-15.24-1.53-19.02-5.41-3.88-3.88-4.69-7.21-4.69-18.75v-19.57h15.96v19.57c0,6.13,.45,8.11,2.16,9.83,1.89,1.8,4.33,2.34,10.37,2.34,5.68,0,8.48-.63,10.55-2.34,2.25-1.98,2.79-4.24,2.79-12.26v-17.13h15.96v42.65h-15.06Z"/>
      <path class="cls-10" d="M1181.42,135.73v31.38h3.43l14.61-13.88h21.37l-22.09,19.84,25.07,22.81h-21.19l-17.13-17.13h-4.06v17.13h-15.96v-60.14h15.96Z"/>
    </g>
    <path class="cls-3" d="M45.06,71.18c-6.54,13.23-10.49,30.43-10.49,49.23,0,41.77,19.51,75.64,43.57,75.64s43.57-33.86,43.57-75.64-19.51-75.64-43.57-75.64c-13.23,0-25.09,10.24-33.08,26.41"/>
    <circle class="cls-1" cx="78.14" cy="120.41" r="75.64"/>
    <ellipse class="cls-2" cx="78.14" cy="120.41" rx="75.64" ry="43.57"/>
    <g>
      <path class="cls-7" d="M109.17,132.85c0,2.84-.03,5.67,.01,8.51,.01,.98-.28,1.46-1.34,1.57-3.17,.34-6.34,.77-9.5,1.19-1.19,.16-1.21-.57-1.21-1.4,0-4.64,0-9.28,0-13.91q0-1.93-1.93-1.93c-1.17,0-2.34,.06-3.51-.01-1.12-.07-1.49,.37-1.48,1.48,.04,4.86,.02,9.73,.02,14.59,0,2.18,0,2.13-2.11,2.37-4.24,.47-8.48,1-12.72,1.5-2.27,.27-4.48-.31-6.7-.56-5.76-.63-11.52-1.35-17.27-2.06-3.28-.41-2.66-.19-2.67-2.93-.04-6.48,.02-12.97-.03-19.45-.01-1.27,.39-1.76,1.67-1.79,5.89-.16,11.78-.34,17.67-.61,2.43-.11,4.85-.26,7.28-.25,.88,0,1.38-.5,1.9-1.1,4.97-5.76,9.95-11.51,14.94-17.26,1.15-1.32,1.18-1.31,2.16,.17,4.67,7,9.34,14.01,14.03,21,.55,.82,.83,1.65,.81,2.64-.04,2.75-.01,5.49-.02,8.24Zm-31.6-.94c0,1.3,.03,2.61-.01,3.91-.02,.84,.25,1.26,1.16,1.2,2.11-.14,4.22-.23,6.32-.35,.83-.05,1.29-.4,1.27-1.35-.05-2.43-.04-4.86,0-7.28,.01-.86-.31-1.22-1.18-1.21-2.11,.03-4.23,.04-6.34,0-.95-.02-1.26,.4-1.23,1.3,.05,1.26,.01,2.52,.01,3.78Zm-5.77-.1c0-1.35-.01-2.7,0-4.05,0-.79-.32-1.14-1.13-1.13-1.93,.03-3.87,.04-5.8,0-.91-.02-1.16,.4-1.15,1.23,.02,2.47,.03,4.95,0,7.42-.01,.86,.34,1.18,1.19,1.22,1.93,.09,3.86,.23,5.78,.43,.88,.09,1.12-.3,1.12-1.07,0-1.35,0-2.7,0-4.05Zm-12.27-.18c0-1.22-.03-2.43,.01-3.65,.03-.89-.37-1.21-1.21-1.19-1.58,.02-3.15,.02-4.73,0-.87-.01-1.19,.38-1.18,1.23,.03,2.21,.03,4.41,0,6.62,0,.78,.32,1.19,1.09,1.23,1.62,.1,3.23,.18,4.85,.3,.89,.07,1.22-.29,1.18-1.17-.05-1.12-.01-2.25-.01-3.38Zm40.72-.36c0,1.08,.03,2.16-.01,3.23-.04,.9,.36,1.21,1.21,1.14,1.43-.11,2.86-.21,4.3-.28,.73-.04,.89-.48,.88-1.08,0-2.11-.01-4.22,0-6.33,0-.81-.39-1.12-1.16-1.11-1.39,.02-2.78,.02-4.18,0-.73,0-1.07,.31-1.05,1.05,.02,1.12,0,2.24,0,3.37Z"/>
      <path class="cls-4" d="M46.61,119.55c-.32,0-.63-.03-.95,0-1.18,.12-1.49-.4-1.57-1.56-.14-1.93,.53-3.22,2.02-4.5,4.27-3.67,8.39-7.5,12.51-11.34,1.1-1.03,2.25-1.73,3.75-1.9,1.07-.12,2.12-.42,3.19-.55,.91-.12,1.32-.5,1.33-1.48,.05-2.86,.08-2.87,2.99-3.48,.92-.19,1.81-.55,2.78-.35,.77,.16,1.22,.51,1.13,1.36-.04,.4,.02,.81,0,1.21-.06,.94,.33,1.14,1.23,.97,5.79-1.1,11.59-2.13,17.37-3.24,1.04-.2,1.66,.02,2.27,.89,6.01,8.6,12.06,17.17,18.1,25.75,.84,1.19,.75,1.18-.63,1.57-1.6,.45-2.43-.16-3.28-1.46-4.79-7.3-9.67-14.55-14.52-21.82-.89-1.34-.95-1.35-2-.14-4.92,5.68-9.88,11.34-14.74,17.08-1.11,1.31-2.27,1.9-4.01,1.95-8.14,.2-16.28,.54-24.42,.84-.85,.03-1.7,.15-2.55,.22,0-.01,0-.03,0-.04Z"/>
    </g>
    <g>
      <path class="cls-8" d="M140.51,44.34c1.09-.74,2.26-1.41,3.24-2.25,1.69-1.44,3.26-2.99,4.9-4.49,.62-.57,.51-1.07-.12-1.55-.84-.62-1.65-1.28-2.55-1.83-.24-.15-.83-.11-1.1,.05-1.18,.66-2.3,1.4-3.46,2.11-.26,.16-.55,.27-.9,.31,1.44-1,2.88-2,4.61-3.2-2.75-.99-5.17-2.06-7.73-2.76-11.55-3.18-23.41-5.09-35.47-6-3.74-.28-7.49-.43-11.37-.64,.23-.23,.45-.42,.63-.64,.72-.9,1.47-1.79,2.1-2.74,.28-.42,.55-.48,1.03-.44,13.82,1.15,27.29,3.69,40.41,7.59,4,1.19,7.9,2.59,11.61,4.77,.91-1.03,1.83-2.02,2.66-3.06,.14-.17-.02-.66-.22-.87-1.84-1.9-4.3-3.03-6.86-4.01-6.15-2.35-12.67-3.6-19.2-4.82-9.17-1.72-18.45-2.71-27.82-3.1-.75-.03-1.06-.24-1.17-.87-.09-.48-.33-.94-.54-1.51,.91-.18,1.82-.25,2.64-.53,2.72-.94,5.44-.61,8.21-.24,10.81,1.45,21.38,3.71,31.7,6.85,4.38,1.33,8.65,2.89,12.22,5.57,.71,.53,1.33,1.14,2,1.71,.95-1.16,1.03-3.23,.2-4.9-.9-1.82-2.54-3.05-4.4-4.08-3.69-2.03-7.77-3.28-11.95-4.31-8.02-1.99-16.17-3.42-24.44-4.35-.28-.03-.56-.09-1.01-.17,1.51-.89,2.87-1.72,4.25-2.5,.19-.11,.52-.08,.77-.03,9.64,1.87,19.21,3.94,28.28,7.43,2.93,1.13,5.62,2.61,7.8,4.7,2.68,2.56,3.3,5.42,1.67,8.63-.15,.29-.13,.75,.03,1.04,1.16,2.17,1.1,4.32,.02,6.5-.17,.34-.17,.86,0,1.2,1.24,2.42,1.05,4.76-.4,7.03-1.73,2.72-4.37,4.69-7.22,6.47-.88,.55-1.81,1.04-2.82,1.44,1.16-.81,2.34-1.6,3.47-2.43,1.95-1.44,3.72-3.04,5-4.97,1.43-2.14,1.98-4.37,.59-6.81-2.58,2.84-5.71,5.01-9.29,6.72Zm6.78-11.78c.98,.93,1.92,1.82,2.89,2.74,.79-1.76,.83-3.5-.21-5.32-1.02,.98-1.97,1.9-2.68,2.58Z"/>
      <path class="cls-11" d="M57.64,20.28c.47,0,.94,0,1.4,0,.43,0,.86,.01,1.28,.03-3.54,2.54,3.27,3.06,8.5,2.49,5.31-.57,12.42-2.22,14.73-4.35,2.41-2.23-3.52-2.68-8.27-2.23-2.3,.22-4.66,.6-6.89,1.11-.84,.19-.91,.22-1.48,.1-.63-.14-1.2-.3-1.74-.47,6.68-1.79,17.49-3.24,21.91-1.54,2.84,1.1,.56,3.11-3.05,4.61-3.66,1.52-8.48,2.69-13.18,3.4-5.24,.79-11.82,1.19-14.67-.11-1.44-.66-1.31-1.69,.03-2.73,.44-.34,.61-.29,1.43-.3Z"/>
      <path class="cls-9" d="M20.39,23.5c4.43-1.09,9.35-1.75,13.83-1.91-.39,.28-1.55,1.22-2.34,1.26-.96,.05-1.93,.14-2.91,.25-2.28,.26-4.61,.66-6.77,1.21-2.23,.57-4.41,1.33-5.53,2.22-1.25,1-.57,1.83,1.19,2.27,3.57,.87,9.81,.4,14.83-.63,5-1.03,10.74-3.4,7.01-4.75,.63-.22,3.01-1.1,3.62-1.08,.5,.02,.92,.38,1.12,.51,1.21,.79,.71,1.9-1.11,2.95-2.96,1.71-8.22,2.96-12.9,3.66-4.15,.62-8.46,.92-12.14,.74-3.69-.19-7.21-.99-6.58-2.61,.61-1.59,4.76-3.11,8.68-4.08Z"/>
      <path class="cls-6" d="M69.61,7.46c1.2-1.1,4.53-2.04,7.4-2.12,4.55-.13,2.99,1.86-.56,2.85-1.94,.49-3.75,.89-5.55,1.53-3.45,1.23-6.43,2.73-8.52,4.22-.92,.65-1.95,1.45-1.8,2.07,.15,.61,1.17,1.08,2.21,1.45,2.27,.8,5.73,1.36,9.71,1.08,1.44-.12,3.4-.27,3.56,.35,.29,1.15-5.57,2.2-7.69,1.96-.44-.05-.64-.12-.86-.25-.45-.26-.83-.47-1.66-.62-3.03-.53-7.39-.46-11.31-.23-4.18,.25-7.87,.96-11.79,2.04-3.29,.91-8.1,2.31-9.54,3.71-.15,.14-.15,.27-.31,.42-.65,.53-2.27,.93-3.63,1.13-1.86,.28-5.35,.4-4.9-.52,.26-.52,1.57-.88,2.79-1.15,3.03-.66,5.53-1.67,7.49-2.74,2.3-1.26,4.73-2.97,3.09-4-1.65-1.03-4.85-1.67-8.05-2.04-2.42-.28-5.03-.36-7.98-.15-2.67,.19-5.77-.24-4.44-1.46,.8-.73,2.91-1.29,4.79-1.52,1.46-.18,4.39-.3,4.94,.18,.6,.52,1.91,.84,3.32,1.06,3.18,.49,7.13,.58,11.06,.48,3.98-.1,7.73-.43,11.76-1.4,4.03-.97,7.94-2.18,11.29-3.51,2.27-.9,4.04-1.8,5.19-2.85Z"/>
      <path class="cls-5" d="M36.91,25.92c.12-.02-.38,.06,0,0h0Z"/>
      <path class="cls-12" d="M93.22,5.99c-3.8,2.91-11.84,5.41-19.65,6.58-2.7,.41-5.43,.67-8.01,.72,.68-.43,1.43-.84,2.23-1.25,.64-.32,.94-.27,1.81-.32,1.39-.09,2.83-.25,4.25-.46,3.73-.56,7.43-1.51,10.4-2.68,3.15-1.24,5.6-2.82,5.65-4.22,.04-1.28-2.08-2.14-5.24-2.36-6.74-.48-16.26,1.53-21.39,4.15-2.6,1.33-4.13,2.9-3.09,4.09,.11,.13,.26,.25,.42,.37,.25,.17-.01,.19-.52,.36-.7,.24-1.41,.48-2.14,.71-.4,.12-1.19,.42-1.52,.41-.09,0-.14-.08-.21-.1-4.22-2.17,.91-5.9,7.84-8.32C70.72,1.37,79.7-.23,86.88,.03c7.58,.27,10.38,2.87,6.34,5.96Z"/>
      <path class="cls-13" d="M37.22,14.39c-.57-.02-.28-.13-.1-.35,.2-.24,.32-.47,.39-.7,.43-1.44-1.71-2.46-4.75-2.92-5.89-.88-15.6,.1-21.68,2.64-2.99,1.25-4.48,2.77-3.63,3.97,.87,1.23,3.85,1.9,7.3,2.08,3.36,.17,7.31-.09,11.11-.76,.98-.17,1.94-.37,2.88-.59,.81-.19,.7-.16,1.31-.12,.99,.07,1.87,.35,2.62,.54-2.35,.64-4.85,1.15-7.38,1.53-7.91,1.19-16.45,1.15-20.89-.57-4.9-1.9-2.2-5.43,5.54-7.89,7.18-2.28,16.44-3.28,23.37-2.8,6.97,.48,11.96,2.75,7.98,5.98-1.4,.02-2.75,0-4.08-.05Z"/>
    </g>
  </g>
</svg>