<?xml version="1.0" encoding="UTF-8"?>
<svg id="Layer_2" data-name="Layer 2" xmlns="http://www.w3.org/2000/svg" xmlns:xlink="http://www.w3.org/1999/xlink" viewBox="0 0 979.33 190.4">
  <defs>
    <style>
      .cls-1 {
        fill: url(#linear-gradient-22);
        stroke: url(#linear-gradient-23);
      }

      .cls-1, .cls-2, .cls-3, .cls-4, .cls-5, .cls-6, .cls-7, .cls-8, .cls-9, .cls-10, .cls-11, .cls-12, .cls-13, .cls-14, .cls-15, .cls-16, .cls-17, .cls-18, .cls-19 {
        stroke-miterlimit: 10;
      }

      .cls-2 {
        stroke: url(#linear-gradient-34);
      }

      .cls-2, .cls-9, .cls-19 {
        fill: none;
        stroke-width: 10px;
      }

      .cls-3 {
        fill: url(#linear-gradient-16);
        stroke: url(#linear-gradient-17);
      }

      .cls-4 {
        fill: url(#linear-gradient-18);
        stroke: url(#linear-gradient-19);
      }

      .cls-5 {
        fill: url(#linear-gradient-30);
        stroke: url(#linear-gradient-31);
      }

      .cls-6 {
        fill: url(#linear-gradient-8);
        stroke: url(#linear-gradient-9);
      }

      .cls-7 {
        fill: url(#linear-gradient-28);
        stroke: url(#linear-gradient-29);
      }

      .cls-8 {
        fill: url(#linear-gradient-10);
        stroke: url(#linear-gradient-11);
      }

      .cls-9 {
        stroke: url(#linear-gradient-35);
      }

      .cls-10 {
        fill: url(#linear-gradient-6);
        stroke: url(#linear-gradient-7);
      }

      .cls-20 {
        fill: url(#linear-gradient-37);
      }

      .cls-11 {
        fill: url(#linear-gradient-24);
        stroke: url(#linear-gradient-25);
      }

      .cls-12 {
        fill: url(#linear-gradient-20);
        stroke: url(#linear-gradient-21);
      }

      .cls-13 {
        fill: url(#linear-gradient-26);
        stroke: url(#linear-gradient-27);
      }

      .cls-14 {
        fill: url(#linear-gradient-14);
        stroke: url(#linear-gradient-15);
      }

      .cls-15 {
        fill: url(#linear-gradient-12);
        stroke: url(#linear-gradient-13);
      }

      .cls-16 {
        fill: url(#linear-gradient-4);
        stroke: url(#linear-gradient-5);
      }

      .cls-21 {
        fill: url(#linear-gradient);
      }

      .cls-17 {
        fill: url(#linear-gradient-32);
        stroke: url(#linear-gradient-33);
      }

      .cls-22 {
        fill: url(#linear-gradient-38);
      }

      .cls-18 {
        fill: url(#linear-gradient-2);
        stroke: url(#linear-gradient-3);
      }

      .cls-19 {
        stroke: url(#linear-gradient-36);
      }
    </style>
    <linearGradient id="linear-gradient" x1="183.6" y1="151.09" x2="921.27" y2="151.09" gradientUnits="userSpaceOnUse">
      <stop offset="0" stop-color="#01a8d4"/>
      <stop offset=".5" stop-color="#203b74"/>
      <stop offset="1" stop-color="#251f4e"/>
    </linearGradient>
    <linearGradient id="linear-gradient-2" x1="694.69" y1="46.63" x2="872.97" y2="46.63" gradientUnits="userSpaceOnUse">
      <stop offset="0" stop-color="#01a8d4"/>
      <stop offset=".5" stop-color="#203b74"/>
      <stop offset="1" stop-color="#1d1d1b"/>
    </linearGradient>
    <linearGradient id="linear-gradient-3" x1="694.12" y1="46.43" x2="873.54" y2="46.43" xlink:href="#linear-gradient-2"/>
    <linearGradient id="linear-gradient-4" x1="867.37" y1="81.05" x2="978.83" y2="81.05" xlink:href="#linear-gradient-2"/>
    <linearGradient id="linear-gradient-5" x1="866.34" y1="81.86" x2="979.33" y2="81.86" xlink:href="#linear-gradient-2"/>
    <linearGradient id="linear-gradient-6" x1="655.85" y1="58.56" x2="725.95" y2="58.56" xlink:href="#linear-gradient-2"/>
    <linearGradient id="linear-gradient-7" x1="655.35" y1="58.5" x2="727.28" y2="58.5" xlink:href="#linear-gradient-2"/>
    <linearGradient id="linear-gradient-8" x1="843.94" y1="19.82" x2="908.33" y2="19.82" xlink:href="#linear-gradient-2"/>
    <linearGradient id="linear-gradient-9" x1="842.51" y1="19.82" x2="908.83" y2="19.82" xlink:href="#linear-gradient-2"/>
    <linearGradient id="linear-gradient-10" x1="833.79" y1="59.55" x2="862.24" y2="59.55" xlink:href="#linear-gradient-2"/>
    <linearGradient id="linear-gradient-11" x1="830.76" y1="59.55" x2="862.74" y2="59.55" xlink:href="#linear-gradient-2"/>
    <linearGradient id="linear-gradient-12" x1="718.49" y1="83.4" x2="749.6" y2="83.4" xlink:href="#linear-gradient-2"/>
    <linearGradient id="linear-gradient-13" x1="717.99" y1="83.22" x2="752.3" y2="83.22" xlink:href="#linear-gradient-2"/>
    <linearGradient id="linear-gradient-14" x1="819.74" y1="57.82" x2="837.49" y2="57.82" xlink:href="#linear-gradient-2"/>
    <linearGradient id="linear-gradient-15" x1="818.96" y1="57.84" x2="839.14" y2="57.84" xlink:href="#linear-gradient-2"/>
    <linearGradient id="linear-gradient-16" x1="740.21" y1="73.49" x2="759.63" y2="73.49" xlink:href="#linear-gradient-2"/>
    <linearGradient id="linear-gradient-17" x1="738.95" y1="73.86" x2="760.37" y2="73.86" xlink:href="#linear-gradient-2"/>
    <linearGradient id="linear-gradient-18" x1="793" y1="63.87" x2="796.53" y2="63.87" xlink:href="#linear-gradient-2"/>
    <linearGradient id="linear-gradient-19" x1="792.5" y1="63.84" x2="797.03" y2="63.84" xlink:href="#linear-gradient-2"/>
    <linearGradient id="linear-gradient-20" x1="787.87" y1="70.65" x2="791.82" y2="70.65" xlink:href="#linear-gradient-2"/>
    <linearGradient id="linear-gradient-21" x1="787.37" y1="70.67" x2="792.32" y2="70.67" xlink:href="#linear-gradient-2"/>
    <linearGradient id="linear-gradient-22" x1="790.79" y1="68.9" x2="796.09" y2="68.9" xlink:href="#linear-gradient-2"/>
    <linearGradient id="linear-gradient-23" x1="790.05" y1="68.9" x2="796.76" y2="68.9" xlink:href="#linear-gradient-2"/>
    <linearGradient id="linear-gradient-24" x1="781.52" y1="65.65" x2="785.05" y2="65.65" xlink:href="#linear-gradient-2"/>
    <linearGradient id="linear-gradient-25" x1="781.02" y1="65.7" x2="785.55" y2="65.7" xlink:href="#linear-gradient-2"/>
    <linearGradient id="linear-gradient-26" x1="786.45" y1="58.9" x2="790.52" y2="58.9" xlink:href="#linear-gradient-2"/>
    <linearGradient id="linear-gradient-27" x1="785.5" y1="58.9" x2="791.02" y2="58.9" xlink:href="#linear-gradient-2"/>
    <linearGradient id="linear-gradient-28" x1="782.52" y1="60.91" x2="787.21" y2="60.91" xlink:href="#linear-gradient-2"/>
    <linearGradient id="linear-gradient-29" x1="782.02" y1="60.98" x2="788.15" y2="60.98" xlink:href="#linear-gradient-2"/>
    <linearGradient id="linear-gradient-30" x1="783.43" y1="69.26" x2="786.59" y2="69.26" xlink:href="#linear-gradient-2"/>
    <linearGradient id="linear-gradient-31" x1="782.93" y1="69.32" x2="787.12" y2="69.32" xlink:href="#linear-gradient-2"/>
    <linearGradient id="linear-gradient-32" x1="791.53" y1="60.22" x2="794.81" y2="60.22" xlink:href="#linear-gradient-2"/>
    <linearGradient id="linear-gradient-33" x1="790.99" y1="60.18" x2="795.31" y2="60.18" xlink:href="#linear-gradient-2"/>
    <linearGradient id="linear-gradient-34" x1="32.07" y1="96.53" x2="129.2" y2="96.53" xlink:href="#linear-gradient-2"/>
    <linearGradient id="linear-gradient-35" x1="0" y1="96.53" x2="161.27" y2="96.53" xlink:href="#linear-gradient-2"/>
    <linearGradient id="linear-gradient-36" x1="0" y1="96.53" x2="161.27" y2="96.53" xlink:href="#linear-gradient-2"/>
    <linearGradient id="linear-gradient-37" x1="50.46" y1="99.47" x2="110.93" y2="99.47" xlink:href="#linear-gradient-2"/>
    <linearGradient id="linear-gradient-38" x1="45.82" y1="84.82" x2="115.05" y2="84.82" xlink:href="#linear-gradient-2"/>
  </defs>
  <g id="Layer_1-2" data-name="Layer 1">
    <g>
      <path class="cls-21" d="M183.78,133.51v-3.52c0-15.87,4.96-18.21,38.41-18.21,16.77,0,22.81,.72,26.6,3.16,4.06,2.52,5.59,6.4,5.59,13.79,0,8.48-2.25,11.45-9.74,12.98,9.2,2.07,10.91,4.33,10.91,14.34,0,8.75-2.16,12.53-8.48,14.88-4.69,1.8-14.07,2.43-34.08,2.43-15.33,0-21.64-1.17-25.43-4.6-3.16-2.98-3.97-6.4-3.97-17.76h17.4l.09,1.08c0,3.88,.27,4.87,1.44,5.95,1.26,.72,1.98,.9,6.04,.99l5.68,.09,5.05,.09q15.24-.36,16.68-1.35c1.35-.81,1.8-1.89,1.8-4.15,0-2.71-.72-3.97-2.61-4.51-1.44-.45-1.98-.45-12.98-.63h-10.55v-12.89h13.79c9.11,0,11.18-.9,11.18-5.05,0-4.6-1.26-4.96-16.77-4.96-13.52,0-16.05,.18-17.4,1.53q-.99,.99-1.26,6.31h-17.4Z"/>
      <path class="cls-21" d="M320.02,129.36c-.09-1.62-.36-2.25-.99-2.71-.9-.72-1.44-.81-6.58-.99-4.06-.18-7.66-.27-10.64-.27-8.57,0-13.34,.36-15.51,1.26-2.07,.9-2.71,3.07-2.71,9.02,0,.72,0,1.98,.09,3.34,4.6-4.42,8.57-5.32,24.34-5.32,23.62,0,28.67,3.43,28.67,19.66,0,10.64-2.07,15.33-7.93,17.85-3.97,1.62-11,2.16-30.21,2.16-17.31,0-23.53-1.08-27.59-4.78-2.71-2.52-3.97-5.95-4.42-12.44-.27-2.62-.36-7.75-.36-15.51,0-10.01,.18-13.07,1.08-17.04,2.16-9.56,9.11-11.81,36.25-11.81,20.47,0,27.32,1.08,30.75,4.87,2.16,2.25,2.8,5.05,2.89,12.71h-17.13Zm-33,18.66c-1.98,.81-3.07,2.71-3.07,5.5,0,3.43,.99,5.14,3.25,5.77,1.44,.36,5.32,.54,11.63,.54,5.32,0,13.8-.27,15.69-.45,3.16-.27,4.42-1.89,4.42-5.77,0-6.13-.9-6.4-19.66-6.4-8.39,0-10.55,.18-12.26,.81Z"/>
      <path class="cls-21" d="M408.03,112.86c7.12,.99,11.63,5.14,12.8,11.63,.63,3.52,.72,4.87,.72,18.03s-.09,14.61-.72,18.12c-1.17,6.49-5.68,10.64-12.8,11.63-4.42,.72-13.25,1.08-24.16,1.08s-19.84-.36-24.25-1.08c-7.12-.99-11.63-5.14-12.8-11.63-.72-3.61-.72-4.6-.72-18.93,0-12.17,.09-13.79,.72-17.22,1.17-6.49,5.68-10.64,12.8-11.63,4.51-.72,13.34-1.08,24.25-1.08s19.66,.36,24.16,1.08Zm-43.64,29.39c0,10.01,.72,12.8,3.79,14.25,2.16,.99,2.7,.99,14.43,1.26q11.27-.18,12.98-.36c6.58-.72,7.66-2.89,7.66-14.88,0-9.56-.81-12.53-3.79-13.88-1.98-.9-7.03-1.26-16.77-1.26-17.49,0-18.3,.63-18.3,14.88Z"/>
      <path class="cls-21" d="M487.2,172.64h-15.06v-5.59h-.81c-3.07,5.14-7.3,6.67-18.84,6.67s-17.04-1.17-20.74-4.51c-3.52-3.25-4.6-7.57-4.6-18.21s1.71-15.96,6.22-18.93c3.88-2.52,8.29-3.25,19.29-3.25s14.88,1.44,17.94,6.85h.63v-23.17h15.96v60.14Zm-44.09-21.82c0,9.47,1.8,10.91,13.79,10.91,5.68,0,9.92-.63,11.81-1.89,1.89-1.17,2.61-3.43,2.61-8.47,0-8.93-2.07-10.55-13.43-10.55-12.62,0-14.79,1.44-14.79,10.01Z"/>
      <path class="cls-21" d="M509.47,129.99v6.4h.81c2.98-5.41,7.48-7.48,16.41-7.48,12.89,0,17.22,4.33,17.22,17.13v2.89h-15.06c0-6.31-1.8-8.02-8.39-8.02-3.61,0-6.58,1.08-8.11,3.07-1.53,2.07-1.98,4.42-1.98,11v17.67h-15.96v-42.65h15.06Z"/>
      <path class="cls-21" d="M602.61,132.79c4.24,3.16,5.5,7.03,5.5,17.76,0,11.72-1.08,15.78-4.96,18.93-4.06,3.34-9.38,4.24-25.16,4.24s-21.28-.9-25.34-4.24c-3.97-3.25-4.96-7.21-4.96-19.57,0-10.01,1.26-14.07,5.5-17.13,3.97-2.89,10.19-3.88,24.71-3.88s20.74,.99,24.71,3.88Zm-38.95,18.84c0,5.59,.72,7.48,3.34,8.66,2.07,.99,5.68,1.44,11,1.44,12.08,0,14.16-1.53,14.16-10.55,0-5.59-.9-7.75-3.61-8.93-1.98-.9-5.86-1.35-10.55-1.35-12.17,0-14.34,1.62-14.34,10.73Z"/>
      <path class="cls-21" d="M629.12,129.99v6.49h.81c2.88-5.5,7.75-7.57,18.12-7.57s15.42,1.44,19.21,5.32c3.88,4.06,4.69,7.3,4.69,19.02v19.39h-15.96v-19.39c0-6.85-.27-8.38-1.98-10.01-1.71-1.71-4.78-2.34-10.73-2.34s-9.02,.81-10.91,2.79c-1.98,2.07-2.34,4.06-2.34,11.9v17.04h-15.96v-42.65h15.06Z"/>
      <path class="cls-21" d="M735.07,159.03c-1.17,11.81-7.03,14.7-29.84,14.7-12.35,0-18.21-1.08-22.09-3.97-4.15-3.16-5.41-7.39-5.41-18.3,0-11.45,1.26-15.69,5.77-18.84,4.15-2.88,9.56-3.79,23.35-3.79s19.02,.81,22.9,3.7c4.15,3.07,5.68,7.93,5.68,17.94,0,.54,0,2.52-.09,4.33h-41.66c0,4.33,.45,5.77,1.98,6.94,1.71,1.26,5.05,1.8,10.82,1.8,10.19,0,12.08-.72,12.71-4.51h15.87Zm-15.69-12.98c-.09-3.34-.27-4.15-1.26-5.14-1.44-1.53-4.69-2.16-11-2.16-10.73,0-13.25,1.35-13.43,7.3h25.7Z"/>
      <path class="cls-21" d="M741.38,129.99h15.06v5.77h.81c2.79-5.23,7.3-6.85,19.57-6.85,11,0,16.68,1.26,20.29,4.69,3.43,3.07,4.42,7.21,4.42,17.94,0,18.57-4.15,22.18-25.43,22.18-10.82,0-14.88-1.44-18.03-6.58h-.72v23.26h-15.96v-60.41Zm15.96,21.82c0,8.29,2.34,9.92,14.16,9.92,5.95,0,9.74-.54,11.45-1.8,1.98-1.26,2.62-3.52,2.62-9.29,0-8.21-2.16-9.74-13.52-9.74-12.8,0-14.7,1.35-14.7,10.91Z"/>
      <path class="cls-21" d="M822.62,129.99v6.4h.81c2.98-5.41,7.48-7.48,16.41-7.48,12.89,0,17.22,4.33,17.22,17.13v2.89h-15.06c0-6.31-1.8-8.02-8.38-8.02-3.61,0-6.58,1.08-8.12,3.07-1.53,2.07-1.98,4.42-1.98,11v17.67h-15.96v-42.65h15.06Z"/>
      <path class="cls-21" d="M915.77,132.79c4.24,3.16,5.5,7.03,5.5,17.76,0,11.72-1.08,15.78-4.96,18.93-4.06,3.34-9.38,4.24-25.16,4.24s-21.28-.9-25.34-4.24c-3.97-3.25-4.96-7.21-4.96-19.57,0-10.01,1.26-14.07,5.5-17.13,3.97-2.89,10.19-3.88,24.71-3.88s20.74,.99,24.71,3.88Zm-38.95,18.84c0,5.59,.72,7.48,3.34,8.66,2.07,.99,5.68,1.44,11,1.44,12.08,0,14.16-1.53,14.16-10.55,0-5.59-.9-7.75-3.61-8.93-1.98-.9-5.86-1.35-10.55-1.35-12.17,0-14.34,1.62-14.34,10.73Z"/>
    </g>
    <g>
      <path class="cls-18" d="M844.65,60.49c-2.59,.71-5.13,1.26-7.58,2.09-13.51,4.57-25.95,11.03-36.52,20.8-1.56,1.44-3.33,2.67-4.9,4.1-.89,.81-1.71,.88-2.81,.55-4.83-1.45-9.63-3.08-14.55-4.16-4.97-1.09-10.04-1.89-15.1-2.33-8.76-.77-17.51-.39-26.18,1.26-.23,.04-.48,0-.36,0,.99-1.71,2.07-3.55,3.11-5.35,.19,.03,.27,.01,.3,.04,2.22,2.61,4.74,2.03,7.66,1.19,6.8-1.96,13.81-2.86,20.91-2.79,.59,0,1.18,0,2.11,0-.46-.82-.73-1.41-1.1-1.93-2.63-3.66-5.22-7.34-7.96-10.91-.56-.73-1.62-1.36-2.53-1.5-7.34-1.12-14.67-2.31-22.05-3.08-9.69-1.01-19.43-1.53-29.18-.73-3.93,.32-7.86,.82-12.1,1.28-.35-1.63-.74-3.48-1.14-5.36,.38-.18,.59-.36,.81-.36,2.96-.09,3.7-2.02,4.01-4.54,.27-2.21,.86-4.38,1.42-7.14,1.77,2.53,3.38,4.56,4.68,6.77,1.14,1.95,2.44,2.43,4.72,2.09,10.51-1.55,21.09-1.86,31.69-1.13,1.28,.09,2-.22,2.53-1.43,1.34-3.05,.62-5.76-2.51-7.41-2.07-1.09-4.35-1.93-6.63-2.47-7.29-1.7-14.71-1.86-22.16-1.61-3.28,.11-6.56,.02-9.66,.02-.1,.08,.04-.12,.23-.17,10.88-3,21.86-4.44,32.99-1.6,2.55,.65,5.12,1.7,7.35,3.09,4.2,2.63,4.92,6,2.94,11.82,3.21,.39,6.38,.73,9.54,1.16,3.14,.42,6.25,.99,9.4,1.36,.9,.11,1.92-.08,2.77-.43,4.16-1.72,8.29-3.52,12.41-5.32,4.5-1.95,9.28-1.7,14.01-1.89,.12,0,.25-.02,.36,0,6.38,1.07,11.84-.87,16.88-4.79,2.42-1.89,5.29-3.22,8.09-4.89-.35-.33-.61-.62-.91-.87-3.69-2.98-4.47-6.86-2.14-11.03,2.12-3.79,5.47-6.34,9.03-8.61,8.75-5.58,18.53-8.11,28.78-9.25-.67,.27-1.34,.57-2.03,.82-8.19,2.98-16.37,6.01-23.68,10.85-3.06,2.03-5.98,4.43-8.46,7.13-2.77,3.01-2.11,6.12,1.09,8.65,.87,.69,1.59,.8,2.62,.26,9.86-5.1,20.07-9.36,30.72-12.55,.62-.19,1.31-1.03,1.47-1.7,.74-3.05,1.3-6.14,2.04-9.75,1.91,2.73,3.6,5.01,5.13,7.38,.8,1.24,1.6,1.74,3.11,1.27,1.37-.43,2.84-.51,4.45-.78,.41,2,.79,3.82,1.17,5.68-.31,.16-.51,.31-.73,.36-12.42,2.83-23.79,8.26-34.85,14.34-7.39,4.06-14.46,8.69-21.64,13.12-.66,.41-1.4,1.13-1.57,1.83-1.23,5.07-2.33,10.18-3.45,15.28-.04,.16,.06,.35,.11,.6,2.98-1.14,5.85-2.51,8.88-3.35,4.74-1.32,9.53-2.49,14.38-3.31,2.35-.4,4.19-.86,4.92-3.35,.1-.34,.35-.63,.64-1.13,1.66,1.26,3.27,2.48,4.99,3.79Zm-46.34,4.22c.07-4.98-3.9-9.07-8.9-9.17-4.93-.1-9.36,4.22-9.43,9.21-.08,5.17,3.87,9.09,9.24,9.17,4.9,.07,9.03-4.11,9.1-9.22Z"/>
      <path class="cls-16" d="M957.99,111.88c1.97-1.55,4.09-2.95,5.87-4.7,3.07-3.02,5.92-6.26,8.88-9.39,1.12-1.18,.93-2.24-.23-3.24-1.52-1.3-3-2.67-4.62-3.83-.44-.31-1.5-.23-2,.09-2.14,1.38-4.18,2.94-6.27,4.41-.47,.33-1,.57-1.63,.65,2.61-2.09,5.23-4.19,8.36-6.69-4.99-2.08-9.38-4.3-14.02-5.77-20.95-6.65-42.45-10.65-64.34-12.55-6.78-.59-13.58-.89-20.63-1.35,.41-.48,.82-.88,1.14-1.34,1.3-1.89,2.66-3.75,3.81-5.73,.5-.88,1-1,1.87-.92,25.06,2.41,49.5,7.71,73.3,15.88,7.26,2.49,14.34,5.42,21.05,9.98,1.65-2.15,3.32-4.22,4.83-6.39,.25-.36-.03-1.38-.4-1.82-3.34-3.98-7.8-6.35-12.45-8.39-11.15-4.92-22.98-7.53-34.82-10.09-16.63-3.6-33.47-5.66-50.46-6.49-1.36-.07-1.92-.51-2.12-1.81-.15-1-.59-1.96-.97-3.16,1.64-.37,3.3-.51,4.78-1.11,4.93-1.98,9.87-1.28,14.89-.5,19.6,3.03,38.77,7.77,57.49,14.33,7.95,2.79,15.69,6.05,22.16,11.65,1.28,1.11,2.42,2.38,3.63,3.58,1.72-2.42,1.87-6.77,.37-10.25-1.64-3.8-4.61-6.39-7.98-8.54-6.69-4.26-14.09-6.85-21.67-9.02-14.54-4.16-29.32-7.15-44.32-9.09-.52-.07-1.02-.2-1.84-.36,2.74-1.87,5.2-3.59,7.71-5.23,.34-.22,.94-.16,1.39-.06,17.48,3.91,34.84,8.24,51.28,15.54,5.32,2.36,10.19,5.46,14.15,9.82,4.86,5.36,5.99,11.34,3.03,18.05-.27,.61-.23,1.56,.05,2.17,2.11,4.55,2,9.03,.04,13.59-.31,.72-.31,1.8,0,2.51,2.26,5.05,1.91,9.95-.72,14.71-3.14,5.68-7.92,9.8-13.09,13.53-1.6,1.15-3.29,2.18-5.11,3.01,2.1-1.69,4.24-3.34,6.29-5.08,3.54-3.01,6.74-6.35,9.08-10.41,2.59-4.48,3.59-9.13,1.08-14.25-4.67,5.95-10.36,10.48-16.85,14.05Zm12.3-24.64c1.78,1.95,3.48,3.8,5.25,5.74,1.43-3.68,1.5-7.32-.39-11.13-1.85,2.06-3.58,3.97-4.86,5.39Z"/>
      <path class="cls-10" d="M682.56,42.71c-2.25,1.42-4.63,2.68-6.73,4.29-3.52,2.68-7.19,5.28-10.2,8.47-4.5,4.77-3.51,8.13,2.86,9.71,4.63,1.15,9.46,1.79,14.23,1.99,13.7,.56,27.18-1.52,40.58-4.11,.82-.16,1.64-.32,2.65-.15-.72,.47-1.41,1-2.17,1.41-15.57,8.39-32.09,12.22-49.78,10.18-4.37-.5-8.56-1.8-12.39-4.08-6.5-3.85-7.66-11.03-2.66-16.73,3.72-4.24,8.52-6.86,13.7-8.76,3.17-1.16,6.48-1.93,9.73-2.87,.06,.21,.11,.42,.17,.63Z"/>
      <path class="cls-6" d="M843.94,38.06c.81-.2,1.37-.36,1.94-.48,14.52-3.24,28.88-7.02,42.08-14.14,3.67-1.98,7.02-4.55,10.46-6.93,.73-.5,1.29-1.29,1.81-2.03,1.53-2.15,1.29-3.7-.83-5.31-4.11-3.11-8.99-4.2-13.89-5.16-3.22-.63-6.47-1.06-9.8-1.59,.14-.19,.21-.4,.32-.42,8.14-1.8,16.25-2.36,24.27,.6,2.8,1.04,5.3,2.55,6.75,5.28,2.14,4.03,1.5,7.9-1.01,11.52-3.91,5.64-9.49,9.22-15.59,11.98-13.92,6.32-28.51,8.84-43.76,7.35-.67-.06-1.33-.18-1.98-.3-.17-.03-.32-.15-.76-.37Z"/>
      <path class="cls-8" d="M848.43,51.49c4.05-.83,8.03-1.09,11.65,1.24,2.48,1.6,2.84,4.2,.97,6.58-2.58,3.28-6.12,5.13-9.92,6.56-5.59,2.1-11.37,2.76-17.35,2.09,1.63-.36,3.26-.68,4.88-1.09,6.02-1.55,12-3.23,17.24-6.74,.95-.64,1.87-1.37,2.64-2.22,1.47-1.63,1.24-3.21-.87-4.05-2.29-.92-4.77-1.35-7.18-1.98-.68-.18-1.38-.26-2.07-.39Z"/>
      <path class="cls-15" d="M749.6,85.61c-5.43,3.1-11.3,4.68-17.49,4.95-3.6,.15-7.17-.14-10.48-1.81-3.52-1.78-4.18-4.96-1.51-7.87,2.5-2.73,5.76-4.07,9.37-4.66-1.74,1.2-3.49,2.38-5.2,3.61-.59,.42-1.12,.94-1.62,1.46-2.62,2.73-2.04,4.82,1.68,5.62,5.35,1.15,10.75,1,16.13,.22,3.05-.44,6.08-1.01,9.12-1.53Z"/>
      <path class="cls-14" d="M819.74,62.79c.67-1.22,1.17-2.58,2.03-3.64,2.91-3.6,10.64-6.73,15.72-6.35-5.92,3.43-12.88,4.62-17.24,10.07-.17-.03-.34-.05-.51-.08Z"/>
      <path class="cls-3" d="M759.63,75.67c-2.24-1.8-4.93-2.08-7.6-2.18-3.88-.14-7.77-.04-11.83-.04,2.4-2.27,10.42-2.85,15.32-1.24,2.61,.85,3.8,1.85,4.1,3.46Z"/>
      <path class="cls-4" d="M796.19,61.79c.13,1.18,.5,2.41,.27,3.52-.08,.42-1.51,.68-2.36,.8-1.06,.15-1.33-.69-.94-1.4,.62-1.11,1.49-2.08,2.25-3.11l.77,.18Z"/>
      <path class="cls-12" d="M789.37,72.52c-.41-.24-1.17-.43-1.3-.82-.26-.83-.22-1.76-.19-2.65,0-.1,.84-.37,1.1-.22,.99,.58,1.93,1.26,2.8,2,.13,.11-.05,.96-.29,1.09-.57,.3-1.26,.37-2.11,.6Z"/>
      <path class="cls-1" d="M796.09,67.78c-.78,.97-1.39,2.31-2.4,2.75-.58,.25-1.8-.96-2.89-1.62,1.44-1.83,3.14-1.61,4.74-1.68,.19,.18,.37,.36,.56,.54Z"/>
      <path class="cls-11" d="M781.96,67.52c-.16-.74-.43-1.49-.44-2.23,0-.53,.22-1.41,.56-1.53,.81-.28,1.75-.26,2.64-.24,.12,0,.44,.84,.3,1.05-.74,1.12-1.59,2.15-2.4,3.22-.22-.09-.44-.18-.66-.27Z"/>
      <path class="cls-13" d="M790.51,60.02c-.19,.13-.81,.73-.95,.64-1.09-.76-2.09-1.65-3.12-2.5,.82-.36,1.62-.9,2.47-1.02,1.16-.16,1.65,.71,1.6,2.88Z"/>
      <path class="cls-7" d="M783.47,62.74c-.48-.57-1-1.08-.95-1.16,.68-.92,1.32-2.16,2.25-2.49,.54-.19,1.61,1.14,2.44,1.78-1.19,.59-2.38,1.19-3.74,1.86Z"/>
      <path class="cls-5" d="M786.05,71.67c-.89-.68-1.99-1.23-2.57-2.12-.23-.36,.54-1.54,1.06-2.19,.73-.92,1.45-.51,1.67,.44,.26,1.13,.27,2.32,.39,3.48-.18,.13-.36,.26-.55,.39Z"/>
      <path class="cls-17" d="M792.05,57.94c.57,.3,1.21,.51,1.68,.92,.47,.41,1.18,1.17,1.06,1.51-.3,.8-.99,1.49-1.62,2.11-.08,.08-1.05-.38-1.13-.7-.28-1.15-.36-2.35-.51-3.53,.17-.1,.35-.2,.52-.3Z"/>
    </g>
    <path class="cls-2" d="M47.56,47.3c-6.54,13.23-10.49,30.43-10.49,49.23,0,41.77,19.51,75.64,43.57,75.64s43.57-33.86,43.57-75.64S104.7,20.89,80.64,20.89c-13.23,0-25.09,10.24-33.08,26.41"/>
    <circle class="cls-9" cx="80.64" cy="96.53" r="75.64"/>
    <ellipse class="cls-19" cx="80.64" cy="96.53" rx="75.64" ry="43.57"/>
    <g>
      <path class="cls-20" d="M110.92,108.97c0,2.84-.03,5.67,.01,8.51,.01,.98-.28,1.46-1.34,1.57-3.17,.34-6.34,.77-9.5,1.19-1.19,.16-1.21-.57-1.21-1.4,0-4.64,0-9.28,0-13.91q0-1.93-1.93-1.93c-1.17,0-2.34,.06-3.51-.01-1.12-.07-1.49,.37-1.48,1.48,.04,4.86,.02,9.73,.02,14.59,0,2.18,0,2.13-2.11,2.37-4.24,.47-8.48,1-12.72,1.5-2.27,.27-4.48-.31-6.7-.56-5.76-.63-11.52-1.35-17.27-2.06-3.28-.41-2.66-.19-2.67-2.93-.04-6.48,.02-12.97-.03-19.45-.01-1.27,.39-1.76,1.67-1.79,5.89-.16,11.78-.34,17.67-.61,2.43-.11,4.85-.26,7.28-.25,.88,0,1.38-.5,1.9-1.1,4.97-5.76,9.95-11.51,14.94-17.26,1.15-1.32,1.18-1.31,2.16,.17,4.67,7,9.34,14.01,14.03,21,.55,.82,.83,1.65,.81,2.64-.04,2.75-.01,5.49-.02,8.24Zm-31.6-.94c0,1.3,.03,2.61-.01,3.91-.02,.84,.25,1.26,1.16,1.2,2.11-.14,4.22-.23,6.32-.35,.83-.05,1.29-.4,1.27-1.35-.05-2.43-.04-4.86,0-7.28,.01-.86-.31-1.22-1.18-1.21-2.11,.03-4.23,.04-6.34,0-.95-.02-1.26,.4-1.23,1.3,.05,1.26,.01,2.52,.01,3.78Zm-5.77-.1c0-1.35-.01-2.7,0-4.05,0-.79-.32-1.14-1.13-1.13-1.93,.03-3.87,.04-5.8,0-.91-.02-1.16,.4-1.15,1.23,.02,2.47,.03,4.95,0,7.42-.01,.86,.34,1.18,1.19,1.22,1.93,.09,3.86,.23,5.78,.43,.88,.09,1.12-.3,1.12-1.07,0-1.35,0-2.7,0-4.05Zm-12.27-.18c0-1.22-.03-2.43,.01-3.65,.03-.89-.37-1.21-1.21-1.19-1.58,.02-3.15,.02-4.73,0-.87-.01-1.19,.38-1.18,1.23,.03,2.21,.03,4.41,0,6.62,0,.78,.32,1.19,1.09,1.23,1.62,.1,3.23,.18,4.85,.3,.89,.07,1.22-.29,1.18-1.17-.05-1.12-.01-2.25-.01-3.38Zm40.72-.36c0,1.08,.03,2.16-.01,3.23-.04,.9,.36,1.21,1.21,1.14,1.43-.11,2.86-.21,4.3-.28,.73-.04,.89-.48,.88-1.08,0-2.11-.01-4.22,0-6.33,0-.81-.39-1.12-1.16-1.11-1.39,.02-2.78,.02-4.18,0-.73,0-1.07,.31-1.05,1.05,.02,1.12,0,2.24,0,3.37Z"/>
      <path class="cls-22" d="M48.36,95.67c-.32,0-.63-.03-.95,0-1.18,.12-1.49-.4-1.57-1.56-.14-1.93,.53-3.22,2.02-4.5,4.27-3.67,8.39-7.5,12.51-11.34,1.1-1.03,2.25-1.73,3.75-1.9,1.07-.12,2.12-.42,3.19-.55,.91-.12,1.32-.5,1.33-1.48,.05-2.86,.08-2.87,2.99-3.48,.92-.19,1.81-.55,2.78-.35,.77,.16,1.22,.51,1.13,1.36-.04,.4,.02,.81,0,1.21-.06,.94,.33,1.14,1.23,.97,5.79-1.1,11.59-2.13,17.37-3.24,1.04-.2,1.66,.02,2.27,.89,6.01,8.6,12.06,17.17,18.1,25.75,.84,1.19,.75,1.18-.63,1.57-1.6,.45-2.43-.16-3.28-1.46-4.79-7.3-9.67-14.55-14.52-21.82-.89-1.34-.95-1.35-2-.14-4.92,5.68-9.88,11.34-14.74,17.08-1.11,1.31-2.27,1.9-4.01,1.95-8.14,.2-16.28,.54-24.42,.84-.85,.03-1.7,.15-2.55,.22,0-.01,0-.03,0-.04Z"/>
    </g>
  </g>
</svg>