<?xml version="1.0" encoding="UTF-8"?>
<svg id="Layer_2" data-name="Layer 2" xmlns="http://www.w3.org/2000/svg" xmlns:xlink="http://www.w3.org/1999/xlink" viewBox="0 0 207.41 122.22">
  <defs>
    <style>
      .cls-1 {
        fill: url(#New_Gradient_Swatch_1);
        stroke-width: 0px;
      }
    </style>
    <linearGradient id="New_Gradient_Swatch_1" data-name="New Gradient Swatch 1" x1="0" y1="61.11" x2="207.41" y2="61.11" gradientUnits="userSpaceOnUse">
      <stop offset="0" stop-color="#01a8d4"/>
      <stop offset=".5" stop-color="#203b74"/>
      <stop offset="1" stop-color="#251f4e"/>
    </linearGradient>
  </defs>
  <g id="Layer_1-2" data-name="Layer 1">
    <path class="cls-1" d="m103.56,100.79c-6.4,0-12.81.04-19.21-.01-4.57-.04-6.09-1.56-6.13-6.09-.05-5.33-.05-10.65,0-15.98.05-4.63,1.46-5.99,6.09-6.01,4.31-.02,8.63-.07,12.94.01,1.53.03,2-.54,1.98-2-.06-4.92.4-4.07-3.99-4.23-3.61-.13-7.28.57-10.82-.77-1.02-.38-1.76.51-2.48,1.09-4.99,4-8.66,9.02-11.39,14.76-4.39,9.2-6.37,18.98-6.86,29.1-.12,2.35-.17,4.71-.35,7.06-.2,2.67-2.19,4.55-4.58,4.47-2.22-.08-4.11-1.91-4.1-4.46.06-16.98,2.77-33.3,12.48-47.76,2.69-4,6.04-7.4,9.84-10.38.73-.57,2-.91,1.6-2.27-.45-1.51-1.78-.86-2.75-.96-1.07-.11-2.16-.02-3.23-.03-5.21-.04-9.07-3.12-9.97-8.22-.33-1.88-1.07-2.39-2.9-2.32-4.39.16-4.39.08-4.46,4.4-.1,6.51-4.62,10.87-11.14,11.08-4.9.16-8.69-1.43-11.07-5.87-.75-1.39-1.13-2.86-1.12-4.46.02-6.2.01-12.4.01-18.61,0-4.4,1.99-7.63,5.85-9.64,1.06-.55,1.51-1.15,1.44-2.32-.08-1.34-.1-2.7.02-4.04.14-1.63-.53-2.07-2.1-2.06-10.45.05-20.9.02-31.35,0-.87,0-1.77-.01-2.6-.22C1.21,13.57,0,11.95,0,9.94c0-2.01,1.18-3.62,3.21-4.13.83-.21,1.73-.23,2.6-.23,10.31-.02,20.63-.04,30.94,0,1.5,0,2.49-.06,2.64-2.02C39.55,1.49,41.46.06,43.46,0c1.87-.06,3.95,1.37,4.22,3.37.27,2,1.26,2.24,2.98,2.23,10.11-.07,20.22-.04,30.34-.04.4,0,.81,0,1.21.01,2.99.13,4.9,1.78,4.96,4.27.06,2.55-1.92,4.42-4.99,4.43-10.45.05-20.9.03-31.35.02-2.88,0-2.88-.02-2.85,2.89,0,.47.07.95,0,1.41-.35,2.31.45,3.71,2.61,4.97,3.38,1.98,4.67,5.41,4.69,9.3.02,4.19.05,4.06,4.18,4.27,2.2.11,3.01-.56,3.41-2.76.82-4.52,4.96-7.24,10.77-7.28,9.44-.06,18.88,0,28.31,0,9.98,0,19.95,0,29.93,0,1.62,0,3.22.01,4.83.28,4.16.69,7.17,3.37,7.96,7.52.33,1.74,1.05,2.29,2.8,2.25,4.54-.11,4.51-.03,4.67-4.61.15-4.29,1.89-7.7,5.8-9.72,1.13-.59,1.48-1.31,1.49-2.54.04-5.91.07-5.94-5.85-5.95-9.3-.03-18.61-.02-27.91-.02-2.23,0-4.17-.51-5.09-2.84-.91-2.3.24-4.73,2.58-5.54.98-.34,1.98-.36,2.99-.36,10.31,0,20.63-.03,30.94.02,1.53,0,2.3-.29,2.55-1.98.33-2.19,2.27-3.65,4.24-3.61,2.15.04,3.98,1.56,4.18,3.91.14,1.75,1.11,1.66,2.32,1.66,10.31-.01,20.63,0,30.94.01.81,0,1.63-.01,2.42.13,2.24.4,3.63,2.04,3.64,4.19.01,2.23-1.45,3.94-3.76,4.31-.73.12-1.48.1-2.22.1-10.31.01-20.63.07-30.94-.02-1.94-.02-2.57.63-2.33,2.44.07.53.08,1.08.01,1.62-.3,2.4.29,3.97,2.73,5.28,2.97,1.59,4.49,4.63,4.52,8.11.06,6.54.08,13.08,0,19.62-.06,5.18-4.72,9.79-9.9,9.9-2.49.05-5.02.27-7.32-.98-4.18-2.28-6.16-5.82-6.09-10.59.06-4.36.32-3.74-3.77-3.82-2.96-.06-2.96-.04-3.62,2.82-1.04,4.46-4.65,7.47-9.24,7.67-1.41.06-2.83-.01-4.25.06-.81.04-1.88-.39-2.28.75-.4,1.13.45,1.71,1.22,2.29,3.24,2.46,6.12,5.28,8.59,8.52,7.32,9.58,10.94,20.62,12.77,32.36.89,5.73,1.36,11.5,1.23,17.31-.06,2.65-1.83,4.53-4.17,4.6-2.2.07-4.1-1.68-4.46-4.15-.09-.6-.08-1.21-.09-1.82-.18-8.24-.98-16.41-3.28-24.36-2.68-9.28-6.86-17.69-14.24-24.24-1.6-1.42-3-2.12-5.38-1.49-3.37.9-6.97.36-10.47.29-1.95-.04-2.79.54-2.49,2.51.03.2,0,.4,0,.61,0,3.13,0,3.12,3.04,3.12,4.25,0,8.49-.02,12.74.02,3.36.03,5.09,1.52,5.17,4.87.14,6,.14,12,0,18-.08,3.61-1.74,5.12-5.57,5.18-6.67.1-13.35.03-20.02.03Zm.04-8.96c3.17.04,5.26-1.99,5.27-5.08,0-3.08-2.13-5.26-5.16-5.27-2.95,0-5.12,2.12-5.17,5.05-.05,3.15,1.96,5.26,5.06,5.3Z"/>
  </g>
</svg>