<?xml version="1.0" encoding="UTF-8"?>
<svg id="Layer_2" data-name="Layer 2" xmlns="http://www.w3.org/2000/svg" xmlns:xlink="http://www.w3.org/1999/xlink" viewBox="0 0 128 129.08">
  <defs>
    <style>
      .cls-1 {
        fill: url(#New_Gradient_Swatch_1);
      }

      .cls-2 {
        fill: url(#New_Gradient_Swatch_1-2);
      }
    </style>
    <linearGradient id="New_Gradient_Swatch_1" data-name="New Gradient Swatch 1" x1="13.1" y1="56.63" x2="97.75" y2="56.63" gradientUnits="userSpaceOnUse">
      <stop offset="0" stop-color="#01a8d4"/>
      <stop offset=".5" stop-color="#203b74"/>
      <stop offset="1" stop-color="#251f4e"/>
    </linearGradient>
    <linearGradient id="New_Gradient_Swatch_1-2" data-name="New Gradient Swatch 1" x1="0" y1="64.54" x2="128" y2="64.54" xlink:href="#New_Gradient_Swatch_1"/>
  </defs>
  <g id="Layer_1-2" data-name="Layer 1">
    <path class="cls-1" d="M55.36,72.83c-2.61,0-5.23,.02-7.84,0-1.86-.02-2.48-.64-2.5-2.48-.02-2.17-.02-4.35,0-6.52,.02-1.89,.6-2.44,2.49-2.45,1.76,0,3.52-.03,5.28,0,.62,.01,.82-.22,.81-.82-.03-2.01,.16-1.66-1.63-1.73-1.47-.05-2.97,.23-4.42-.31-.41-.16-.72,.21-1.01,.44-2.03,1.63-3.53,3.68-4.65,6.02-1.79,3.76-2.6,7.75-2.8,11.88-.05,.96-.07,1.92-.14,2.88-.08,1.09-.89,1.86-1.87,1.82-.91-.03-1.68-.78-1.67-1.82,.02-6.93,1.13-13.59,5.09-19.49,1.1-1.63,2.46-3.02,4.02-4.23,.3-.23,.82-.37,.65-.93-.18-.62-.73-.35-1.12-.39-.44-.04-.88,0-1.32-.01-2.13-.02-3.7-1.27-4.07-3.36-.13-.77-.44-.97-1.18-.95-1.79,.07-1.79,.03-1.82,1.8-.04,2.66-1.89,4.44-4.54,4.52-2,.06-3.55-.58-4.52-2.39-.3-.57-.46-1.17-.46-1.82,0-2.53,0-5.06,0-7.59,0-1.79,.81-3.12,2.39-3.94,.43-.23,.62-.47,.59-.95-.03-.55-.04-1.1,0-1.65,.06-.67-.22-.84-.86-.84-4.26,.02-8.53,0-12.79,0-.35,0-.72,0-1.06-.09-.82-.21-1.31-.87-1.31-1.69,0-.82,.48-1.48,1.31-1.68,.34-.09,.71-.09,1.06-.09,4.21,0,8.42-.02,12.63,0,.61,0,1.02-.02,1.08-.82,.06-.84,.84-1.42,1.66-1.45,.77-.02,1.61,.56,1.72,1.38,.11,.82,.51,.91,1.22,.91,4.13-.03,8.25-.01,12.38-.01,.17,0,.33,0,.5,0,1.22,.05,2,.72,2.02,1.74,.03,1.04-.79,1.8-2.04,1.81-4.26,.02-8.53,.01-12.79,.01-1.17,0-1.17,0-1.16,1.18,0,.19,.03,.39,0,.58-.14,.94,.18,1.51,1.06,2.03,1.38,.81,1.91,2.21,1.92,3.8,0,1.71,.02,1.66,1.7,1.74,.9,.05,1.23-.23,1.39-1.13,.34-1.84,2.03-2.96,4.39-2.97,3.85-.03,7.7,0,11.56,0,4.07,0,8.14,0,12.22,0,.66,0,1.32,0,1.97,.11,1.7,.28,2.93,1.38,3.25,3.07,.14,.71,.43,.94,1.14,.92,1.85-.04,1.84-.01,1.91-1.88,.06-1.75,.77-3.14,2.37-3.97,.46-.24,.61-.54,.61-1.04,.02-2.41,.03-2.42-2.39-2.43-3.8-.01-7.59,0-11.39,0-.91,0-1.7-.21-2.08-1.16-.37-.94,.1-1.93,1.05-2.26,.4-.14,.81-.15,1.22-.15,4.21,0,8.42-.01,12.63,0,.62,0,.94-.12,1.04-.81,.14-.89,.92-1.49,1.73-1.47,.88,.02,1.63,.64,1.7,1.59,.06,.71,.45,.68,.95,.68,4.21,0,8.42,0,12.63,0,.33,0,.66,0,.99,.05,.91,.16,1.48,.83,1.49,1.71,0,.91-.59,1.61-1.53,1.76-.3,.05-.6,.04-.91,.04-4.21,0-8.42,.03-12.63,0-.79,0-1.05,.26-.95,.99,.03,.22,.03,.44,0,.66-.12,.98,.12,1.62,1.11,2.16,1.21,.65,1.83,1.89,1.85,3.31,.03,2.67,.03,5.34,0,8.01-.02,2.11-1.93,3.99-4.04,4.04-1.01,.02-2.05,.11-2.99-.4-1.71-.93-2.51-2.38-2.49-4.32,.03-1.78,.13-1.53-1.54-1.56-1.21-.03-1.21-.02-1.48,1.15-.42,1.82-1.9,3.05-3.77,3.13-.58,.02-1.16,0-1.73,.03-.33,.02-.77-.16-.93,.31-.16,.46,.18,.7,.5,.94,1.32,1,2.5,2.16,3.5,3.48,2.99,3.91,4.47,8.42,5.21,13.21,.36,2.34,.56,4.69,.5,7.06-.02,1.08-.75,1.85-1.7,1.88-.9,.03-1.67-.68-1.82-1.69-.04-.24-.03-.49-.04-.74-.07-3.36-.4-6.7-1.34-9.94-1.09-3.79-2.8-7.22-5.81-9.89-.65-.58-1.23-.87-2.2-.61-1.38,.37-2.85,.15-4.27,.12-.79-.02-1.14,.22-1.01,1.02,.01,.08,0,.16,0,.25,0,1.28,0,1.27,1.24,1.27,1.73,0,3.47,0,5.2,0,1.37,.01,2.08,.62,2.11,1.99,.06,2.45,.06,4.9,0,7.35-.03,1.47-.71,2.09-2.27,2.11-2.72,.04-5.45,.01-8.17,.01Zm.02-3.66c1.29,.01,2.15-.81,2.15-2.07,0-1.26-.87-2.15-2.11-2.15-1.2,0-2.09,.86-2.11,2.06-.02,1.29,.8,2.15,2.06,2.16Z"/>
    <path class="cls-2" d="M0,54.14c.29-2.57,.47-5.15,.9-7.71C4.71,23.8,23.32,4.98,45.94,1c17.68-3.11,33.52,1.03,47.22,12.57,10.53,8.87,16.87,20.28,19.04,33.89,2.2,13.83-.49,26.72-7.8,38.66-.36,.58-.56,1.02,.02,1.64,7.66,8.28,15.29,16.59,22.92,24.89,.2,.21,.44,.39,.65,.59v.5c-2.91,2.66-5.84,5.29-8.72,7.98-2.63,2.46-5.42,4.75-7.91,7.36h-.25c-7.26-7.96-14.53-15.92-21.78-23.89-1.66-1.82-1.64-1.83-3.79-.55-11.78,6.98-24.49,9.44-37.99,7.31-13.39-2.11-24.6-8.38-33.55-18.54-6.92-7.85-11.28-16.97-13.11-27.29-.45-2.56-.61-5.14-.89-7.71v-4.28ZM56.51,6.65C29.81,6.38,6.75,28.13,6.64,56.15c-.1,27.35,21.86,49.83,49.62,49.93,28.44,.11,50.08-23.06,50.07-49.75,0-27.39-22.56-49.93-49.81-49.69Z"/>
  </g>
</svg>